<svg version="1.1" id="Layer_1" xmlns:x="ns_extend;" xmlns:i="ns_ai;" xmlns:graph="ns_graphs;" xmlns="http://www.w3.org/2000/svg" xmlns:xlink="http://www.w3.org/1999/xlink" x="0px" y="0px" viewBox="0 0 456.4 99.9" style="enable-background:new 0 0 456.4 99.9;" xml:space="preserve">
 <style type="text/css">
  .st0{fill:#00ABE4;}
	.st1{fill:#231F20;}
 </style>
 <metadata>
  <sfw xmlns="ns_sfw;">
   <slices>
   </slices>
   <sliceSourceBounds bottomLeftOrigin="true" height="99.9" width="456.4" x="0" y="86.3">
   </sliceSourceBounds>
  </sfw>
 </metadata>
 <g>
  <g>
   <g>
    <path class="st0" d="M91.9,32.7l-25-25.2c-3-2.8-6.5-5-10.4-6.3c-8.6-2.9-17.1-0.6-24,6.3l-25,25.2c-2.8,3-4.9,6.5-6.3,10.4
				c-2.9,8.6-0.6,17.2,6.3,24.1l25.1,25.2c3,2.8,6.5,5,10.3,6.3c2.3,0.8,4.8,1.2,7.3,1.2c6,0,11.8-2.6,16.7-7.5L92,67.2
				c2.8-3,4.9-6.5,6.3-10.4C101,48.2,98.8,39.7,91.9,32.7L91.9,32.7z M51.6,14.8c1.9,0.6,3.6,1.6,5.1,2.9l7.4,7.5L49.7,39.8
				L35.3,25.2l7.4-7.5C44.7,15.7,47.5,13.6,51.6,14.8L51.6,14.8z M14.8,48c0.6-1.9,1.6-3.7,2.9-5.2l7.4-7.5L39.6,50L25.1,64.5
				L17.7,57C15.7,55,13.6,52.2,14.8,48L14.8,48z M47.8,85.1c-1.9-0.6-3.6-1.6-5.1-2.9l-7.4-7.4l14.4-14.5l14.4,14.5l-7.4,7.5
				C54.7,84.3,51.9,86.4,47.8,85.1L47.8,85.1z M84.7,52c-0.6,1.9-1.6,3.7-2.9,5.2l-7.4,7.4L59.9,50l14.4-14.5l7.4,7.5
				C83.8,44.9,85.9,47.8,84.7,52">
    </path>
    <path class="st1" d="M146,85.5h13V49.4c0-11.1-6.7-19.4-18.2-19.4c-5.6,0-11.6,2.5-14.7,7.1V10.3h-12.9v75.2H126V57
				c0-6.7,3.3-15,11.1-15c6.8,0,8.9,3.8,8.9,10.1V85.5z M198.3,64.1c0,7.9-5.6,12.3-13.6,12.3c-4,0-7.6-2.6-7.6-6.7
				c0-4.3,3.8-6.7,7.7-7l13.5-1L198.3,64.1L198.3,64.1z M209.1,86.4c2.2,0.1,4.4-0.4,6.4-1.4v-9.5c-0.5,0.1-1.1,0.2-1.6,0.2
				c-2.2,0-3-0.9-3-3.4v-20c0.2-3.7-0.4-7.4-1.5-10.8c-3.1-8.1-10.9-10.9-20-10.9c-11.9,0-21.5,5.4-22.2,17.5h12.4
				c0.3-5,3.8-7.6,9.8-7.6c7.3,0,9,3.4,9,8.5v3.3l-15.7,1.1c-10.2,0.7-18.1,6.6-18.1,16.8c0,8.8,6.6,16.8,19.3,16.8
				c7.6,0,13.8-3.7,16.2-8.1C200.4,82.8,203.5,86.3,209.1,86.4L209.1,86.4z M249.4,43.3c0.7,0,1.4,0,2,0.1V31.2
				c-0.6,0-1.1-0.1-1.6-0.1c-6.3,0-12.6,2.6-15.1,8.8l-1.1-8.1h-10.9v53.7h12.9v-27C235.6,49.8,240.3,43.3,249.4,43.3L249.4,43.3z
				 M289.9,85.5h12.8V49.7c0-11.2-6.7-19.2-18.1-19.2c-6.1,0-12.5,2.6-15.7,8.2l-0.9-6.9h-10.7v53.7h12.8V63.6
				c0-4.5-0.1-10.1,1.8-14.4c1.7-3.9,4.7-6.8,9.2-6.8c6.8,0,8.8,3.8,8.8,10.1L289.9,85.5z M344.9,53.3h-23.1c-0.1-3,0.9-6,2.8-8.4
				c1.1-1.3,2.4-2.4,4-3.1c1.6-0.7,3.2-1.1,5-1c1.5-0.1,3,0.2,4.4,0.7s2.7,1.4,3.7,2.4C343.6,46.2,344.8,49.3,344.9,53.3L344.9,53.3
				z M357.7,59.1c0.2-6.7-0.7-12.8-4.6-18.7c-4.4-6.7-11.6-9.9-19.5-9.9c-3.2-0.1-6.3,0.5-9.2,1.6c-2.9,1.2-5.6,2.9-7.8,5.2
				c-5.1,5.3-7.7,12.9-7.7,21.5c0,8.8,2.9,16.3,8.2,21.5c2.2,2.2,4.9,3.9,7.8,5s6,1.7,9.1,1.6c6.8,0,13.4-2.2,18-7.5
				c2-2.5,4.2-6.7,4.5-9.9h-12.3c-0.4,1.7-1.3,3.3-2.6,4.5c-1.8,1.9-4.1,2.6-7.8,2.6c-3,0-5.8-1.2-7.9-3.3c-1.3-1.4-2.4-3.1-3-4.9
				c-0.7-1.8-1-3.7-0.9-5.7h35.7C357.6,61.6,357.7,59.1,357.7,59.1z M374.9,46.8c0-1.3,0.4-2.5,1.2-3.5c0.7-1,1.8-1.8,2.9-2.2
				c1.8-0.7,3.7-0.9,5.5-0.8c2.6-0.1,5,0.8,7,2.5c1.3,1.3,2.1,3.2,2.1,5.1h12.2c-0.2-4.1-1.8-8.1-4.7-11.1
				c-3.9-4.2-10.4-6.3-16.7-6.3c-6.7,0-12.3,2-16.2,5.4c-1.8,1.5-3.1,3.3-4.1,5.4c-0.9,2.1-1.4,4.4-1.3,6.7
				c0,6.8,4.9,12.8,12.2,14.4c4.7,1,10.1,1.3,14.8,2.1c3.3,0.5,5.3,2.6,5.3,5.7c0,5.9-6.6,6.8-10.9,6.8c-3.7,0-6.1-0.7-8.1-2.4
				c-1.4-1.3-2.4-3-2.7-4.9h-12.1c0.5,4.2,2.5,8.2,5.6,11.1c4.4,4.2,10.5,6.2,17.3,6.2c7.3,0,14-1.9,18.3-6.2
				c1.5-1.5,2.7-3.4,3.5-5.4s1.2-4.2,1.1-6.4c0-8.5-6.1-13.8-14.6-15.2c-5.2-0.8-6.6-0.9-11.4-1.5C378.3,51.8,375,50.6,374.9,46.8
				L374.9,46.8z M443,47.8h12.2c-0.2-4.1-1.8-8.1-4.7-11.1c-3.9-4.2-10.4-6.3-16.7-6.3c-6.7,0-12.3,2-16.2,5.4
				c-1.8,1.5-3.1,3.3-4.1,5.4c-0.9,2.1-1.4,4.4-1.3,6.7c0,6.8,4.9,12.8,12.2,14.4c4.7,1,10.1,1.3,14.8,2.1c3.3,0.5,5.3,2.6,5.3,5.7
				c0,5.9-6.6,6.8-10.9,6.8c-3.7,0-6.1-0.7-8.1-2.4c-1.4-1.3-2.4-3-2.7-4.9h-12.1c0.5,4.2,2.5,8.2,5.6,11.1
				c4.4,4.2,10.5,6.2,17.2,6.2c7.3,0,14-1.9,18.3-6.2c1.5-1.5,2.7-3.4,3.5-5.4s1.2-4.2,1.1-6.4c0-8.5-6.1-13.8-14.6-15.2
				c-5.2-0.8-6.6-0.9-11.4-1.5c-2.9-0.4-6.1-1.6-6.1-5.4c0-1.3,0.4-2.5,1.2-3.5c0.7-1,1.8-1.8,2.9-2.2c1.8-0.7,3.7-0.9,5.5-0.8
				c2.5-0.1,5,0.8,7,2.5C442.1,44.1,442.9,45.9,443,47.8">
    </path>
   </g>
  </g>
 </g>
</svg>