<svg version="1.1" id="Layer_1" xmlns:x="ns_extend;" xmlns:i="ns_ai;" xmlns:graph="ns_graphs;" xmlns="http://www.w3.org/2000/svg" xmlns:xlink="http://www.w3.org/1999/xlink" x="0px" y="0px" viewBox="0 0 237.8 34.9" style="enable-background:new 0 0 237.8 34.9;" xml:space="preserve">
 <style type="text/css">
  .st0{fill:#B7BBBE;}
 </style>
 <metadata>
  <sfw xmlns="ns_sfw;">
   <slices>
   </slices>
   <sliceSourceBounds bottomLeftOrigin="true" height="34.9" width="237.8" x="-8.4" y="72">
   </sliceSourceBounds>
  </sfw>
 </metadata>
 <g>
  <path d="M80.5,8.3c-1-4.9-2-6.5-7.6-6.5c-2.4,0-4.3,0.7-5.6,1.8c-1.1,0.9-1.7,2.2-1.7,3.6c0.1,1.4,0.6,2.8,1.6,3.8
		c1.2,1.2,3,2.2,6,3.7c3.7,1.9,6.5,3,8.5,5.3c1.3,1.6,2,3.6,2,5.6c0.1,2.4-0.9,4.7-2.6,6.3c-2,1.8-5.1,3-9.3,3c-3-0.1-6-0.6-8.8-1.6
		c-0.3-2.4-0.9-4.7-1.5-7l1.7-0.4c1.5,5.8,4.2,7.2,9.2,7.2c2,0.1,4-0.6,5.7-1.8c1.5-1.2,2.4-3,2.4-4.9c0.1-1.5-0.5-3.1-1.5-4.2
		c-1.5-1.8-4.1-2.9-6.8-4.3c-2.9-1.5-6.9-3.6-8.2-5.5c-0.9-1.3-1.4-2.9-1.4-4.5c0-2.2,1-4.3,2.8-5.6c1.7-1.3,4.3-2.2,8-2.2
		c2.7-0.1,5.4,0.4,7.9,1.3C81.6,3.3,82,5.9,82.4,8L80.5,8.3z M90.9,23.5c0-3.6,0.7-6,1.9-7.7c2.4-2.6,6.5-2.6,9.1-0.2
		c0.1,0.1,0.1,0.1,0.2,0.2c1.3,1.7,1.9,4,1.9,7.7c0,3.8-0.8,6.2-2,7.7c-2.4,2.5-6.3,2.7-8.9,0.3c-0.1-0.1-0.2-0.2-0.3-0.3
		C91.7,29.8,90.9,27.3,90.9,23.5z M87.5,23.5c0,4.3,1.1,7.1,3,8.9c1.9,1.7,4.2,2.4,7,2.4c3,0,5.3-0.8,7.2-2.5
		c1.8-1.8,2.9-4.5,2.9-8.8c0-3.7-1-6.6-2.9-8.5c-1.8-1.8-4-2.6-7.2-2.6c-3,0-5.2,0.8-7,2.6C88.5,16.8,87.5,19.8,87.5,23.5z
		 M113.9,14.4h-3.5v-1.5h3.5v-3c0-2.9,0.7-5.1,2.2-6.7c2.5-2.2,6.1-2.5,8.8-0.7c1.4,0.9,2,2.1,2,2.9c0,0.9-0.5,1.5-1.3,1.5
		c-1.1,0-1.6-1-2.1-2s-1.1-2-2.6-2c-0.9,0-1.8,0.4-2.4,1c-0.9,1.1-1.5,2.8-1.5,6.2v2.8h6v1.5h-6v15.4c0,2.8,0.2,3.1,3.7,3.1v1.2
		h-10.5V33c3.3,0,3.5-0.3,3.5-3.2L113.9,14.4z">
  </path>
  <path d="M125.2,13.4c3-0.3,5-1.4,5.6-6.4h1.2v6h5v1.5h-5v15.3c0,2.2,0.7,3.4,2.3,3.4c1.1,0,2.1-0.4,2.9-1.1l0.8,1
		c-1.3,1.1-2.9,1.7-4.6,1.7c-2.4,0-4.6-1.1-4.6-4.8V14.4h-3.5L125.2,13.4z M147.9,4.1c0-1.3,0.2-1.7,1.4-1.7h4.5
		c3.3,0,5.4,0.8,6.7,1.8c1.2,1.1,1.8,2.7,1.9,4.3c0.1,1.9-0.7,3.8-2.2,5.1c-1.7,1.4-4.3,2-7.6,2h-4.7L147.9,4.1z M144.4,29.2
		c0,3.4-0.3,3.6-3.8,3.6v1.4H156c4.9,0,7.7-1.1,9.5-2.9c1.8-1.7,2.7-4.1,2.6-6.5c0-2.3-1.1-4.5-3-5.8c-2-1.6-4.8-2.4-7.9-2.5v-0.1
		c3-0.4,5-1.4,6.4-2.6c1.5-1.4,2.4-3.4,2.4-5.4c0-2.2-1.1-4.3-3-5.5c-2.6-1.7-5.4-2.1-9.7-2.1h-12.7v1.4c3.5,0,3.8,0.2,3.8,3.6
		L144.4,29.2z M147.9,17.5h5.9c3.9,0,6.5,0.7,8.1,1.9c1.7,1.2,2.6,3.1,2.6,5.2c0,2.5-0.7,4.2-1.9,5.4c-1.6,1.6-3.8,2.4-7.1,2.4h-5.9
		c-1.5,0-1.8-0.3-1.8-2.3L147.9,17.5z M183.9,30.5c-1.2,1.2-2.8,2.5-5.1,2.5c-1.1,0.1-2.3-0.3-3.1-1.1c-0.7-0.8-1.1-1.9-1-3
		c0-2.2,1.3-3.4,3.2-4.4c1.8-1.1,4.1-1.8,6.1-2.3L183.9,30.5L183.9,30.5z M187.2,19c0-2.1-0.3-3.4-1.6-4.7c-1.2-1.4-2.8-1.8-5.7-1.8
		c-1.9-0.1-3.8,0.4-5.4,1.3c-1.5,0.9-2.5,2.2-2.5,3.3c-0.1,0.7,0.5,1.3,1.2,1.4c0.1,0,0.1,0,0.2,0c0.8,0.1,1.5-0.4,1.6-1.1
		c0.3-0.9,0.8-1.7,1.5-2.3c0.9-0.7,2-1.1,3.2-1.1c1.6,0,2.7,0.5,3.4,1.4c0.6,0.8,0.8,2.2,0.8,3.3v2l-2.8,0.7c-2.5,0.5-4.8,1.4-7,2.7
		c-2.1,1.4-2.9,3.1-2.9,5.2c0,1.6,0.7,3.1,1.9,4.1s2.8,1.5,4.3,1.4c2.5,0.1,4.9-0.9,6.6-2.6h0.2c0.4,1.6,1.4,2.4,3.1,2.4
		c1,0,2-0.2,2.9-0.7l-0.3-1.1c-0.4,0.2-0.8,0.3-1.3,0.3c-0.9,0-1.4-0.9-1.4-3.1V19z M211.2,30c0,2.6,0.2,3,2.3,3v1.2h-8V33
		c2.3,0,2.4-0.3,2.4-3.1V19.4c0-1.8-0.2-3.4-1.1-4.3c-0.7-0.7-1.7-1-2.7-0.9c-2,0-4.1,1.8-6,4.4V30c0,2.8,0,3.1,2.2,3.1v1.2H192V33
		c2.5,0,2.7-0.3,2.7-3.1V18.4c0-2.7-0.2-3.1-2.7-3v-1c2.1-0.3,3.7-0.8,5.2-1.9l0.5,0.3l0.2,3.6h0.1c1.9-2.4,4.3-3.9,6.9-3.9
		c2,0,3.5,0.5,4.5,1.5s1.7,2.7,1.7,5.2L211.2,30z M222.3,22.6L229,16c1.3-1.2,1.6-1.9-0.7-1.9v-1.2h7v1.2c-1.2,0-2.4,0.5-3.2,1.4
		l-5,4.7l7.2,11c1,1.7,2.1,1.8,3.5,1.8v1.2h-5.4l-7.7-11.9l-2.6,2.6v5c0,2.7,0.1,3.1,2.7,3.1v1.2H216V33c2.7,0,2.8-0.4,2.8-3.1V7.5
		c0-2.7-0.3-3.1-2.8-3.1v-1c2-0.2,3.9-0.9,5.7-1.9l0.4,0.3v20.8L222.3,22.6z">
  </path>
  <path class="st0" d="M0,0h47.3v11.6H0V0z M0,23.2h47.3v11.6H0V23.2z">
  </path>
 </g>
</svg>