<?xml version="1.0" encoding="UTF-8"?>
<svg id="Layer_1" data-name="Layer 1" xmlns="http://www.w3.org/2000/svg" viewBox="0 0 194.89 325.33">
  <path d="M151.6,145.52c-.48-9.44-1.85-18.01-4.37-26.94-5.03-17.78-11.82-34.78-21.29-50.67-5.29-8.87-11.1-17.11-18.34-24.38-13.33-13.4-31.02-20.25-48.47-10.9-3.74,3.46-6.79,7.06-10.02,11.01l-16.84,20.59c-2,2.45-4.16,4.4-7.09,5.67-1.51-1.72-2.11-3.87-1.59-6.08,2.66-11.39,10.7-24.04,17.77-33.58,5.2-7.01,10.41-13.62,16.7-19.67,2.28-2.19,4.58-4.7,7.51-5.93,4.6-1.94,9.38-2.86,14.35-3.79,13.84-2.61,28.13.89,39.94,8.59,16.84,10.97,28.82,29.52,36.47,47.93,11.27,27.11,17.31,56.09,16.27,85.55l-2.48,31.5c-.48,6.15-.22,11.87.9,17.89,1.77,9.5,7.44,17.58,15.83,22.35l8.03,3.56c-7.77,4.11-19.31,3.83-25.32-2.42l-4.2-4.37c-6.12-7.76-9.79-23.93-11.14-34.22s-2.08-20.84-2.63-31.71Z"/>
  <g>
    <path d="M101.56,238.35c-3.71-2.24-4.31-11.27-4.8-16.73-.6-6.82-1.11-13.43-2.3-20.15-.63-3.61-3.44-7.79-5.95-5.84-1.68,1.3-3.39,2.84-4.71,4.62l-10.06,13.56c-2.48,3.34-6.54,8.87-8.03,6.27-8.58-14.96-10.06-33.73-10.68-50.82-.41-11.22.8-22.22,2.75-33.32,1.51-8.55,3.78-16.55,6.91-24.58,2.52-6.47,6.75-13.47,12.71-16.94,4.26-2.48,10.02-.99,11.96,3.68,1.4,3.35-5.54,7.81-8.1,11.48-3.89,5.58-6.21,12.11-7.32,18.8-1.42,8.56.83,16.64,5.95,23.49,3.79,5.08,8.63,8.72,13.55,12.7l2.9,2.35,18.65,11.66c3.26,2.04,6.2,4.18,9.12,6.63,9.41,7.92,5.39,24.49,1.07,35.35l-1.95,4.9c-3.95,8.33-12.2,13.53-21.68,12.88Z"/>
    <path d="M35.02,248.03c.29,1.94-4.28-1.85-7.41-7.14-8.45-14.25-17.67-31.78-22.48-47.58C.79,179.03-.64,164.28.25,149.38c.4-6.61,1.7-12.54,3.32-18.87,2.15-8.4,9.04-19.39,17.72-19.11,1.89.06,3.09,1.06,3.23,2.98.19,2.7.04,5.57-.52,8.33l-4.07,19.96c-6.14,30.12-6.91,59.92,6.37,88.29l8.56,15.87.18,1.19Z"/>
  </g>
  <path d="M70.21,277.51c-5.88-1.56-14.6-4.83-16.64-10.07-.14-.37-.1-1.47.12-1.79.85-1.23,6.58-1.16,9.98-.86l17.63,1.55c2.76.24,6.03.78,8.64.04,5.95-1.69,10.56-5.77,14.1-10.58,1.99-2.7,4.51-4.54,7.79-5.41,6.12-1.63,12.46-2.07,18.8-1.51l6.78,1.45c1.72.37,3.37,1.72,4.05,2.99,3.09,5.83-4.07,13.88-9.86,18.03-4.25,3.04-8.99,4.76-13.93,6.36l-3.98,1.3c-14.43,2.83-29.25,2.29-43.48-1.49Z"/>
  <path d="M93.33,323.17c-8.51-1.57-17.18-6.93-24.72-11.02-18.08-9.6-2.05-23.15,12.22-20.89,6.23,1.67,12.96,1.06,19.02-.77,12.96-2.82,31.71-10.93,44.43-9.55,10.53,2.59,5.31,18.55-.42,26.27-11.65,15.68-33.15,21.77-50.53,15.96Z"/>
</svg>