<?xml version="1.0" encoding="UTF-8"?>
<svg id="Layer_1" data-name="Layer 1" xmlns="http://www.w3.org/2000/svg" viewBox="0 0 195.45 326">
  <defs>
    <style>
      .cls-1 {
        fill: #675f5a;
      }

      .cls-2 {
        fill: #fdfdfd;
      }
    </style>
  </defs>
  <path class="cls-2" d="M124.86,223.4c5.62-14.94,9.9-31-2.47-39.85-22.4-16.03-56.7-29.1-46.63-60.71,5.76-18.09,16.8-20.02,13.74-25.32-2.71-4.69-8.9-5.33-13.12-2.1-5.26,4.03-8.85,9.36-11.32,15.73-9.1,23.53-11.38,48.58-8.91,73.82,1.19,12.13,3.39,23.33,8.84,34.02.63,1.24,1.33,2.24,2.49,2.16.65-.04,1.75-.59,2.36-1.38l16.91-21.92c1.08-1.4,3.09-2.4,4.52-1.8,6.95,2.92,2.96,30.7,9.55,42.41,10.57,1.99,20.14-4.7,24.04-15.06ZM141.48,261.6c2.04-3.59,1.83-9.06-2.48-10.54-9.45-3.25-20.09-2.91-29.43.5-4.87,1.78-11.83,16.07-22.54,15.31l-29.06-2.07c-1.79-.13-3.77.27-4.06,1.69-2.7,13.11,69.17,27.45,87.57-4.89Z"/>
  <g>
    <path class="cls-1" d="M0,171v-26l4.22-15.82c2.28-9.24,12.24-20.97,19.97-16.38,2.23,5.2.01,11.84-1.14,17.37-3.36,16.11-6.47,31.3-6.86,47.78-.55,23.31,4.73,45.24,17.01,64.87,1.32,2.11,2.42,4.17,2.31,6.28-2.85-.94-4.43-2.84-5.76-4.88-6.78-10.4-12.29-21.04-17.53-32.41-6.12-13.27-9.9-26.83-12.2-40.81Z"/>
    <path class="cls-1" d="M124.86,223.4c-3.9,10.36-13.46,17.05-24.04,15.06-6.6-11.71-2.6-39.5-9.55-42.41-1.42-.6-3.44.4-4.52,1.8l-16.91,21.92c-.61.79-1.71,1.34-2.36,1.38-1.17.08-1.86-.93-2.49-2.16-5.45-10.69-7.65-21.89-8.84-34.02-2.47-25.24-.19-50.29,8.91-73.82,2.47-6.37,6.06-11.7,11.32-15.73,4.21-3.23,10.41-2.6,13.12,2.1,3.06,5.3-7.98,7.24-13.74,25.32-10.07,31.61,24.24,44.68,46.63,60.71,12.37,8.85,8.09,24.91,2.47,39.85Z"/>
  </g>
  <g>
    <g>
      <path class="cls-1" d="M86,0c2.13,1.55,5.87,1.55,8,0l1.98.29c55.09,8.45,78.13,89.29,77.13,140.59l-2.55,36.12c-1.38,19.49,5.35,35,24.88,41.38-6.91,4.14-16.11,4.44-22.85.06-7.3-4.75-11.18-12.17-13.68-20.38-4.35-14.3-5.98-28.89-6.55-44-.6-15.89-2.88-30.34-8.04-45.3-9.15-26.55-26.85-63.97-52.07-76.02-10.51-5.03-24.54-6.13-33.71,1.75s-14.43,17.44-22.24,25.85c-3.13,3.37-5.6,8.32-10.56,9.79-5.86-5.07,4.2-22.78,10.47-31.95,8.06-11.77,16.42-23.29,27.75-32.12,4.68-3.65,13.08-3.51,18.03-6.04h4Z"/>
      <path class="cls-1" d="M94,0c-2.13,1.55-5.87,1.55-8,0h8Z"/>
    </g>
    <g>
      <path class="cls-1" d="M113,326h-14c-1.95-2.11-5.22-1.9-8.15-2.9-9.48-3.24-18.23-7.92-26.49-13.36-2.49-1.64-3.54-4.84-3.58-7.2-.11-6.81,10.93-13.28,22.42-10.68,19.73,4.46,67.3-24.63,67.59-2.68.08,6.1-2.07,11.98-5.54,17.15-7.53,11.19-19.48,17.29-32.26,19.67Z"/>
      <path class="cls-1" d="M141.48,261.6c-18.41,32.35-90.28,18.01-87.57,4.89.29-1.42,2.28-1.81,4.06-1.69l29.06,2.07c10.71.76,17.68-13.53,22.54-15.31,9.34-3.42,19.97-3.75,29.43-.5,4.31,1.48,4.52,6.95,2.48,10.54Z"/>
    </g>
  </g>
</svg>